<svg width="211" height="66" viewBox="0 0 211 66" fill="none" xmlns="http://www.w3.org/2000/svg">
<path d="M34.6706 55.0701L53.8287 16.4665H69.3412L45.7621 63.5518H23.5791L0 16.4665H15.435L34.6706 55.0701Z" fill="#101010"/>
<path d="M98.8254 53.4055C103.428 53.4055 106.97 52.877 109.452 51.8201C111.934 50.7104 113.666 49.1514 114.648 47.1433H129.618C128.067 52.9563 124.706 57.4218 119.535 60.5396C114.364 63.6047 107.306 65.1372 98.3601 65.1372C88.0701 65.1372 79.9777 62.997 74.0829 58.7165C68.1881 54.436 65.2407 48.2002 65.2407 40.0092C65.2407 34.5661 66.611 29.9685 69.3515 26.2165C72.1438 22.4116 75.9702 19.5844 80.8308 17.7348C85.6915 15.8323 91.276 14.8811 97.5844 14.8811C107.668 14.8811 115.605 17.1799 121.396 21.7775C127.188 26.3222 130.083 33.3506 130.083 42.8628H80.5982C81.167 46.6677 82.9509 49.3892 85.95 51.0275C88.9491 52.6128 93.2409 53.4055 98.8254 53.4055ZM97.5844 25.5823C93.1375 25.5823 89.5438 26.2693 86.8032 27.6433C84.0626 28.9644 82.2011 31.1311 81.2187 34.1433H114.338C113.356 31.1311 111.468 28.9644 108.676 27.6433C105.935 26.2693 102.238 25.5823 97.5844 25.5823Z" fill="#101010"/>
<path d="M143.207 63.5518H122.963L148.094 40.0092L122.963 16.4665H143.207L157.944 31.6067L172.681 16.4665H192.925L167.795 40.0092L192.925 63.5518H172.681L157.944 48.4116L143.207 63.5518Z" fill="#101010"/>
<path d="M196.03 63.5518V0.137207H211V63.5518H196.03Z" fill="#101010"/>
</svg>
