<svg width="900" height="900" viewBox="0 0 900 900" fill="none" xmlns="http://www.w3.org/2000/svg">
<path d="M279.93 31.93H248V15.965C248 6.91817 254.918 0 263.965 0H279.93V31.93Z" fill="black"/>
<path d="M294.965 31.93H279V0H294.965C304.012 0 310.93 6.91817 310.93 15.965C310.93 25.0118 304.012 31.93 294.965 31.93Z" fill="black"/>
<path d="M403.93 31.93H372V15.965C372 6.91817 378.918 0 387.965 0C397.012 0 403.93 6.91817 403.93 15.965V31.93Z" fill="black"/>
<path d="M465.93 31.93H434V15.965C434 6.91817 440.918 0 449.965 0C459.012 0 465.93 6.91817 465.93 15.965V31.93Z" fill="black"/>
<path d="M558.93 31.93H542.965C533.918 31.93 527 25.0118 527 15.965C527 6.91817 533.918 0 542.965 0H558.93V31.93Z" fill="black"/>
<path d="M589.93 0H558V31.93H589.93V0Z" fill="black"/>
<path d="M620.93 0H589V31.93H620.93V0Z" fill="black"/>
<path d="M651.93 31.93H620V0H635.965C645.012 0 651.93 6.91817 651.93 15.965V31.93Z" fill="black"/>
<path d="M279.93 31H248V62.93H279.93V31Z" fill="black"/>
<path d="M341.93 62.93H310V46.965C310 37.9182 316.918 31 325.965 31C335.012 31 341.93 37.9182 341.93 46.965V62.93Z" fill="black"/>
<path d="M403.93 62.93H387.965C378.918 62.93 372 56.0118 372 46.965V31H403.93V62.93Z" fill="black"/>
<path d="M434.93 31H403V62.93H434.93V31Z" fill="black"/>
<path d="M465.93 31H434V62.93H465.93V31Z" fill="black"/>
<path d="M496.93 31H465V62.93H496.93V31Z" fill="black"/>
<path d="M511.965 62.93H496V31H511.965C521.012 31 527.93 37.9182 527.93 46.965C527.93 56.0118 521.012 62.93 511.965 62.93Z" fill="black"/>
<path d="M589.93 31H558V62.93H589.93V31Z" fill="black"/>
<path d="M635.965 62.93C626.918 62.93 620 56.0118 620 46.965V31H651.93V46.965C651.93 56.0118 645.012 62.93 635.965 62.93Z" fill="black"/>
<path d="M279.93 93.93H263.965C254.918 93.93 248 87.0118 248 77.965V62H279.93V93.93Z" fill="black"/>
<path d="M310.93 62H279V93.93H310.93V62Z" fill="black"/>
<path d="M341.93 62H310V93.93H341.93V62Z" fill="black"/>
<path d="M496.93 62H465V93.93H496.93V62Z" fill="black"/>
<path d="M573.965 93.93C564.918 93.93 558 87.0118 558 77.965V62H589.93V77.965C589.93 87.0118 583.012 93.93 573.965 93.93Z" fill="black"/>
<path d="M310.93 93H279V124.93H310.93V93Z" fill="black"/>
<path d="M325.965 124.93H310V93H341.93V108.965C341.93 118.012 335.012 124.93 325.965 124.93Z" fill="black"/>
<path d="M387.965 124.93C396.782 124.93 403.93 117.782 403.93 108.965C403.93 100.148 396.782 93 387.965 93C379.148 93 372 100.148 372 108.965C372 117.782 379.148 124.93 387.965 124.93Z" fill="black"/>
<path d="M465.93 124.93H434V108.965C434 99.9182 440.918 93 449.965 93H465.93V124.93Z" fill="black"/>
<path d="M496.93 93H465V124.93H496.93V93Z" fill="black"/>
<path d="M542.965 124.93C551.782 124.93 558.93 117.782 558.93 108.965C558.93 100.148 551.782 93 542.965 93C534.148 93 527 100.148 527 108.965C527 117.782 534.148 124.93 542.965 124.93Z" fill="black"/>
<path d="M651.93 124.93H620V108.965C620 99.9182 626.918 93 635.965 93C645.012 93 651.93 99.9182 651.93 108.965V124.93Z" fill="black"/>
<path d="M294.965 155.93C285.918 155.93 279 149.012 279 139.965V124H310.93V139.965C310.93 149.012 304.012 155.93 294.965 155.93Z" fill="black"/>
<path d="M372.93 155.93H341V139.965C341 130.918 347.918 124 356.965 124C366.012 124 372.93 130.918 372.93 139.965V155.93Z" fill="black"/>
<path d="M434.93 155.93H418.965C409.918 155.93 403 149.012 403 139.965C403 130.918 409.918 124 418.965 124H434.93V155.93Z" fill="black"/>
<path d="M465.93 124H434V155.93H465.93V124Z" fill="black"/>
<path d="M480.965 155.93H465V124H496.93V139.965C496.93 149.012 490.012 155.93 480.965 155.93Z" fill="black"/>
<path d="M589.93 155.93H573.965C564.918 155.93 558 149.012 558 139.965C558 130.918 564.918 124 573.965 124H589.93V155.93Z" fill="black"/>
<path d="M620.93 124H589V155.93H620.93V124Z" fill="black"/>
<path d="M651.93 124H620V155.93H651.93V124Z" fill="black"/>
<path d="M279.93 186.93H248V170.965C248 161.918 254.918 155 263.965 155C273.012 155 279.93 161.918 279.93 170.965V186.93Z" fill="black"/>
<path d="M372.93 186.93H356.965C347.918 186.93 341 180.012 341 170.965V155H372.93V186.93Z" fill="black"/>
<path d="M403.93 186.93H372V155H387.965C397.012 155 403.93 161.918 403.93 170.965V186.93Z" fill="black"/>
<path d="M651.93 155H620V186.93H651.93V155Z" fill="black"/>
<path d="M279.93 186H248V217.93H279.93V186Z" fill="black"/>
<path d="M325.965 217.93C334.782 217.93 341.93 210.782 341.93 201.965C341.93 193.148 334.782 186 325.965 186C317.148 186 310 193.148 310 201.965C310 210.782 317.148 217.93 325.965 217.93Z" fill="black"/>
<path d="M387.965 217.93C378.918 217.93 372 211.012 372 201.965V186H403.93V201.965C403.93 211.012 397.012 217.93 387.965 217.93Z" fill="black"/>
<path d="M449.965 217.93C458.782 217.93 465.93 210.782 465.93 201.965C465.93 193.148 458.782 186 449.965 186C441.148 186 434 193.148 434 201.965C434 210.782 441.148 217.93 449.965 217.93Z" fill="black"/>
<path d="M527.93 217.93H496V201.965C496 192.918 502.918 186 511.965 186C521.012 186 527.93 192.918 527.93 201.965V217.93Z" fill="black"/>
<path d="M589.93 217.93H558V201.965C558 192.918 564.918 186 573.965 186C583.012 186 589.93 192.918 589.93 201.965V217.93Z" fill="black"/>
<path d="M651.93 186H620V217.93H651.93V186Z" fill="black"/>
<path d="M279.93 217H248V248.93H279.93V217Z" fill="black"/>
<path d="M310.93 248.93H279V217H294.965C304.012 217 310.93 223.918 310.93 232.965V248.93Z" fill="black"/>
<path d="M356.965 248.93C365.782 248.93 372.93 241.782 372.93 232.965C372.93 224.148 365.782 217 356.965 217C348.148 217 341 224.148 341 232.965C341 241.782 348.148 248.93 356.965 248.93Z" fill="black"/>
<path d="M418.965 248.93C427.782 248.93 434.93 241.782 434.93 232.965C434.93 224.148 427.782 217 418.965 217C410.148 217 403 224.148 403 232.965C403 241.782 410.148 248.93 418.965 248.93Z" fill="black"/>
<path d="M527.93 217H496V248.93H527.93V217Z" fill="black"/>
<path d="M589.93 217H558V248.93H589.93V217Z" fill="black"/>
<path d="M635.965 248.93C626.918 248.93 620 242.012 620 232.965V217H651.93V232.965C651.93 242.012 645.012 248.93 635.965 248.93Z" fill="black"/>
<path d="M93.93 279.93H62V263.965C62 254.918 68.9182 248 77.965 248H93.93V279.93Z" fill="black"/>
<path d="M124.93 248H93V279.93H124.93V248Z" fill="black"/>
<path d="M139.965 279.93H124V248H139.965C149.012 248 155.93 254.918 155.93 263.965C155.93 273.012 149.012 279.93 139.965 279.93Z" fill="black"/>
<path d="M201.965 279.93C210.782 279.93 217.93 272.782 217.93 263.965C217.93 255.148 210.782 248 201.965 248C193.148 248 186 255.148 186 263.965C186 272.782 193.148 279.93 201.965 279.93Z" fill="black"/>
<path d="M279.93 248H248V279.93H279.93V248Z" fill="black"/>
<path d="M310.93 248H279V279.93H310.93V248Z" fill="black"/>
<path d="M511.965 279.93C502.918 279.93 496 273.012 496 263.965V248H527.93V263.965C527.93 273.012 521.012 279.93 511.965 279.93Z" fill="black"/>
<path d="M589.93 248H558V279.93H589.93V248Z" fill="black"/>
<path d="M682.93 279.93H666.965C657.918 279.93 651 273.012 651 263.965C651 254.918 657.918 248 666.965 248H682.93V279.93Z" fill="black"/>
<path d="M713.93 248H682V279.93H713.93V248Z" fill="black"/>
<path d="M744.93 279.93H713V248H728.965C738.012 248 744.93 254.918 744.93 263.965V279.93Z" fill="black"/>
<path d="M837.93 279.93H806V263.965C806 254.918 812.918 248 821.965 248H837.93V279.93Z" fill="black"/>
<path d="M868.93 248H837V279.93H868.93V248Z" fill="black"/>
<path d="M899.93 279.93H868V248H883.965C893.012 248 899.93 254.918 899.93 263.965V279.93Z" fill="black"/>
<path d="M15.965 310.93C24.7822 310.93 31.93 303.782 31.93 294.965C31.93 286.148 24.7822 279 15.965 279C7.14777 279 0 286.148 0 294.965C0 303.782 7.14777 310.93 15.965 310.93Z" fill="black"/>
<path d="M93.93 310.93H77.965C68.9182 310.93 62 304.012 62 294.965V279H93.93V310.93Z" fill="black"/>
<path d="M124.93 279H93V310.93H124.93V279Z" fill="black"/>
<path d="M248.93 310.93H217V294.965C217 285.918 223.918 279 232.965 279H248.93V310.93Z" fill="black"/>
<path d="M279.93 279H248V310.93H279.93V279Z" fill="black"/>
<path d="M294.965 310.93H279V279H310.93V294.965C310.93 304.012 304.012 310.93 294.965 310.93Z" fill="black"/>
<path d="M372.93 310.93H341V294.965C341 285.918 347.918 279 356.965 279C366.012 279 372.93 285.918 372.93 294.965V310.93Z" fill="black"/>
<path d="M418.965 310.93C427.782 310.93 434.93 303.782 434.93 294.965C434.93 286.148 427.782 279 418.965 279C410.148 279 403 286.148 403 294.965C403 303.782 410.148 310.93 418.965 310.93Z" fill="black"/>
<path d="M558.93 310.93H527V294.965C527 285.918 533.918 279 542.965 279H558.93V310.93Z" fill="black"/>
<path d="M589.93 279H558V310.93H589.93V279Z" fill="black"/>
<path d="M620.93 279H589V310.93H620.93V279Z" fill="black"/>
<path d="M651.93 310.93H620V279H635.965C645.012 279 651.93 285.918 651.93 294.965V310.93Z" fill="black"/>
<path d="M713.93 279H682V310.93H713.93V279Z" fill="black"/>
<path d="M744.93 279H713V310.93H744.93V279Z" fill="black"/>
<path d="M759.965 310.93H744V279H759.965C769.012 279 775.93 285.918 775.93 294.965C775.93 304.012 769.012 310.93 759.965 310.93Z" fill="black"/>
<path d="M821.965 310.93C812.918 310.93 806 304.012 806 294.965V279H837.93V294.965C837.93 304.012 831.012 310.93 821.965 310.93Z" fill="black"/>
<path d="M883.965 310.93C874.918 310.93 868 304.012 868 294.965V279H899.93V294.965C899.93 304.012 893.012 310.93 883.965 310.93Z" fill="black"/>
<path d="M124.93 310H93V341.93H124.93V310Z" fill="black"/>
<path d="M155.93 310H124V341.93H155.93V310Z" fill="black"/>
<path d="M186.93 310H155V341.93H186.93V310Z" fill="black"/>
<path d="M217.93 310H186V341.93H217.93V310Z" fill="black"/>
<path d="M248.93 310H217V341.93H248.93V310Z" fill="black"/>
<path d="M263.965 341.93H248V310H279.93V325.965C279.93 335.012 273.012 341.93 263.965 341.93Z" fill="black"/>
<path d="M372.93 310H341V341.93H372.93V310Z" fill="black"/>
<path d="M387.965 341.93H372V310H387.965C397.012 310 403.93 316.918 403.93 325.965C403.93 335.012 397.012 341.93 387.965 341.93Z" fill="black"/>
<path d="M465.93 341.93H434V325.965C434 316.918 440.918 310 449.965 310C459.012 310 465.93 316.918 465.93 325.965V341.93Z" fill="black"/>
<path d="M558.93 341.93H542.965C533.918 341.93 527 335.012 527 325.965V310H558.93V341.93Z" fill="black"/>
<path d="M589.93 310H558V341.93H589.93V310Z" fill="black"/>
<path d="M651.93 310H620V341.93H651.93V310Z" fill="black"/>
<path d="M682.93 310H651V341.93H682.93V310Z" fill="black"/>
<path d="M713.93 310H682V341.93H713.93V310Z" fill="black"/>
<path d="M744.93 310H713V341.93H744.93V310Z" fill="black"/>
<path d="M806.93 341.93H775V325.965C775 316.918 781.918 310 790.965 310C800.012 310 806.93 316.918 806.93 325.965V341.93Z" fill="black"/>
<path d="M62.93 372.93H46.965C37.9182 372.93 31 366.012 31 356.965C31 347.918 37.9182 341 46.965 341H62.93V372.93Z" fill="black"/>
<path d="M93.93 341H62V372.93H93.93V341Z" fill="black"/>
<path d="M124.93 341H93V372.93H124.93V341Z" fill="black"/>
<path d="M186.93 341H155V372.93H186.93V341Z" fill="black"/>
<path d="M341.93 372.93H325.965C316.918 372.93 310 366.012 310 356.965C310 347.918 316.918 341 325.965 341H341.93V372.93Z" fill="black"/>
<path d="M372.93 341H341V372.93H372.93V341Z" fill="black"/>
<path d="M434.93 372.93H418.965C409.918 372.93 403 366.012 403 356.965C403 347.918 409.918 341 418.965 341H434.93V372.93Z" fill="black"/>
<path d="M449.965 372.93H434V341H465.93V356.965C465.93 366.012 459.012 372.93 449.965 372.93Z" fill="black"/>
<path d="M511.965 372.93C520.782 372.93 527.93 365.782 527.93 356.965C527.93 348.148 520.782 341 511.965 341C503.148 341 496 348.148 496 356.965C496 365.782 503.148 372.93 511.965 372.93Z" fill="black"/>
<path d="M589.93 372.93H573.965C564.918 372.93 558 366.012 558 356.965V341H589.93V372.93Z" fill="black"/>
<path d="M620.93 341H589V372.93H620.93V341Z" fill="black"/>
<path d="M651.93 341H620V372.93H651.93V341Z" fill="black"/>
<path d="M682.93 341H651V372.93H682.93V341Z" fill="black"/>
<path d="M713.93 341H682V372.93H713.93V341Z" fill="black"/>
<path d="M744.93 341H713V372.93H744.93V341Z" fill="black"/>
<path d="M806.93 341H775V372.93H806.93V341Z" fill="black"/>
<path d="M868.93 372.93H837V356.965C837 347.918 843.918 341 852.965 341C862.012 341 868.93 347.918 868.93 356.965V372.93Z" fill="black"/>
<path d="M93.93 403.93H77.965C68.9182 403.93 62 397.012 62 387.965V372H93.93V403.93Z" fill="black"/>
<path d="M108.965 403.93H93V372H124.93V387.965C124.93 397.012 118.012 403.93 108.965 403.93Z" fill="black"/>
<path d="M186.93 372H155V403.93H186.93V372Z" fill="black"/>
<path d="M217.93 372H186V403.93H217.93V372Z" fill="black"/>
<path d="M248.93 403.93H217V372H232.965C242.012 372 248.93 378.918 248.93 387.965V403.93Z" fill="black"/>
<path d="M294.965 403.93C303.782 403.93 310.93 396.782 310.93 387.965C310.93 379.148 303.782 372 294.965 372C286.148 372 279 379.148 279 387.965C279 396.782 286.148 403.93 294.965 403.93Z" fill="black"/>
<path d="M372.93 403.93H356.965C347.918 403.93 341 397.012 341 387.965V372H372.93V403.93Z" fill="black"/>
<path d="M387.965 403.93H372V372H387.965C397.012 372 403.93 378.918 403.93 387.965C403.93 397.012 397.012 403.93 387.965 403.93Z" fill="black"/>
<path d="M480.965 403.93C489.782 403.93 496.93 396.782 496.93 387.965C496.93 379.148 489.782 372 480.965 372C472.148 372 465 379.148 465 387.965C465 396.782 472.148 403.93 480.965 403.93Z" fill="black"/>
<path d="M620.93 372H589V403.93H620.93V372Z" fill="black"/>
<path d="M682.93 372H651V403.93H682.93V372Z" fill="black"/>
<path d="M728.965 403.93C719.918 403.93 713 397.012 713 387.965V372H744.93V387.965C744.93 397.012 738.012 403.93 728.965 403.93Z" fill="black"/>
<path d="M806.93 372H775V403.93H806.93V372Z" fill="black"/>
<path d="M837.93 372H806V403.93H837.93V372Z" fill="black"/>
<path d="M868.93 372H837V403.93H868.93V372Z" fill="black"/>
<path d="M899.93 403.93H868V372H883.965C893.012 372 899.93 378.918 899.93 387.965V403.93Z" fill="black"/>
<path d="M31.93 434.93H15.965C6.91817 434.93 0 428.012 0 418.965C0 409.918 6.91817 403 15.965 403H31.93V434.93Z" fill="black"/>
<path d="M46.965 434.93H31V403H46.965C56.0118 403 62.93 409.918 62.93 418.965C62.93 428.012 56.0118 434.93 46.965 434.93Z" fill="black"/>
<path d="M186.93 403H155V434.93H186.93V403Z" fill="black"/>
<path d="M248.93 434.93H232.965C223.918 434.93 217 428.012 217 418.965V403H248.93V434.93Z" fill="black"/>
<path d="M279.93 434.93H248V403H263.965C273.012 403 279.93 409.918 279.93 418.965V434.93Z" fill="black"/>
<path d="M325.965 434.93C334.782 434.93 341.93 427.782 341.93 418.965C341.93 410.148 334.782 403 325.965 403C317.148 403 310 410.148 310 418.965C310 427.782 317.148 434.93 325.965 434.93Z" fill="black"/>
<path d="M434.93 434.93H418.965C409.918 434.93 403 428.012 403 418.965C403 409.918 409.918 403 418.965 403H434.93V434.93Z" fill="black"/>
<path d="M449.965 434.93H434V403H449.965C459.012 403 465.93 409.918 465.93 418.965C465.93 428.012 459.012 434.93 449.965 434.93Z" fill="black"/>
<path d="M620.93 434.93H604.965C595.918 434.93 589 428.012 589 418.965V403H620.93V434.93Z" fill="black"/>
<path d="M651.93 403H620V434.93H651.93V403Z" fill="black"/>
<path d="M682.93 403H651V434.93H682.93V403Z" fill="black"/>
<path d="M697.965 434.93H682V403H697.965C707.012 403 713.93 409.918 713.93 418.965C713.93 428.012 707.012 434.93 697.965 434.93Z" fill="black"/>
<path d="M775.93 434.93H759.965C750.918 434.93 744 428.012 744 418.965C744 409.918 750.918 403 759.965 403H775.93V434.93Z" fill="black"/>
<path d="M790.965 434.93H775V403H806.93V418.965C806.93 428.012 800.012 434.93 790.965 434.93Z" fill="black"/>
<path d="M868.93 434.93H852.965C843.918 434.93 837 428.012 837 418.965V403H868.93V434.93Z" fill="black"/>
<path d="M883.965 434.93H868V403H899.93V418.965C899.93 428.012 893.012 434.93 883.965 434.93Z" fill="black"/>
<path d="M108.965 465.93C117.782 465.93 124.93 458.782 124.93 449.965C124.93 441.148 117.782 434 108.965 434C100.148 434 93 441.148 93 449.965C93 458.782 100.148 465.93 108.965 465.93Z" fill="black"/>
<path d="M186.93 465.93H170.965C161.918 465.93 155 459.012 155 449.965V434H186.93V465.93Z" fill="black"/>
<path d="M201.965 465.93H186V434H201.965C211.012 434 217.93 440.918 217.93 449.965C217.93 459.012 211.012 465.93 201.965 465.93Z" fill="black"/>
<path d="M279.93 434H248V465.93H279.93V434Z" fill="black"/>
<path d="M310.93 465.93H279V434H294.965C304.012 434 310.93 440.918 310.93 449.965V465.93Z" fill="black"/>
<path d="M387.965 465.93C396.782 465.93 403.93 458.782 403.93 449.965C403.93 441.148 396.782 434 387.965 434C379.148 434 372 441.148 372 449.965C372 458.782 379.148 465.93 387.965 465.93Z" fill="black"/>
<path d="M728.965 465.93C737.782 465.93 744.93 458.782 744.93 449.965C744.93 441.148 737.782 434 728.965 434C720.148 434 713 441.148 713 449.965C713 458.782 720.148 465.93 728.965 465.93Z" fill="black"/>
<path d="M62.93 496.93H31V480.965C31 471.918 37.9182 465 46.965 465H62.93V496.93Z" fill="black"/>
<path d="M77.965 496.93H62V465H77.965C87.0118 465 93.93 471.918 93.93 480.965C93.93 490.012 87.0118 496.93 77.965 496.93Z" fill="black"/>
<path d="M279.93 465H248V496.93H279.93V465Z" fill="black"/>
<path d="M310.93 465H279V496.93H310.93V465Z" fill="black"/>
<path d="M325.965 496.93H310V465H325.965C335.012 465 341.93 471.918 341.93 480.965C341.93 490.012 335.012 496.93 325.965 496.93Z" fill="black"/>
<path d="M480.965 496.93C489.782 496.93 496.93 489.782 496.93 480.965C496.93 472.148 489.782 465 480.965 465C472.148 465 465 472.148 465 480.965C465 489.782 472.148 496.93 480.965 496.93Z" fill="black"/>
<path d="M589.93 496.93H558V480.965C558 471.918 564.918 465 573.965 465H589.93V496.93Z" fill="black"/>
<path d="M620.93 465H589V496.93H620.93V465Z" fill="black"/>
<path d="M635.965 496.93H620V465H635.965C645.012 465 651.93 471.918 651.93 480.965C651.93 490.012 645.012 496.93 635.965 496.93Z" fill="black"/>
<path d="M697.965 496.93C706.782 496.93 713.93 489.782 713.93 480.965C713.93 472.148 706.782 465 697.965 465C689.148 465 682 472.148 682 480.965C682 489.782 689.148 496.93 697.965 496.93Z" fill="black"/>
<path d="M775.93 496.93H759.965C750.918 496.93 744 490.012 744 480.965C744 471.918 750.918 465 759.965 465H775.93V496.93Z" fill="black"/>
<path d="M806.93 496.93H775V465H790.965C800.012 465 806.93 471.918 806.93 480.965V496.93Z" fill="black"/>
<path d="M868.93 496.93H852.965C843.918 496.93 837 490.012 837 480.965C837 471.918 843.918 465 852.965 465H868.93V496.93Z" fill="black"/>
<path d="M899.93 496.93H868V465H883.965C893.012 465 899.93 471.918 899.93 480.965V496.93Z" fill="black"/>
<path d="M31.93 527.93H0V511.965C0 502.918 6.91817 496 15.965 496H31.93V527.93Z" fill="black"/>
<path d="M46.965 527.93H31V496H62.93V511.965C62.93 521.012 56.0118 527.93 46.965 527.93Z" fill="black"/>
<path d="M155.93 527.93H139.965C130.918 527.93 124 521.012 124 511.965C124 502.918 130.918 496 139.965 496H155.93V527.93Z" fill="black"/>
<path d="M186.93 496H155V527.93H186.93V496Z" fill="black"/>
<path d="M201.965 527.93H186V496H201.965C211.012 496 217.93 502.918 217.93 511.965C217.93 521.012 211.012 527.93 201.965 527.93Z" fill="black"/>
<path d="M279.93 496H248V527.93H279.93V496Z" fill="black"/>
<path d="M418.965 527.93C427.782 527.93 434.93 520.782 434.93 511.965C434.93 503.148 427.782 496 418.965 496C410.148 496 403 503.148 403 511.965C403 520.782 410.148 527.93 418.965 527.93Z" fill="black"/>
<path d="M558.93 527.93H527V511.965C527 502.918 533.918 496 542.965 496H558.93V527.93Z" fill="black"/>
<path d="M573.965 527.93H558V496H589.93V511.965C589.93 521.012 583.012 527.93 573.965 527.93Z" fill="black"/>
<path d="M806.93 496H775V527.93H806.93V496Z" fill="black"/>
<path d="M821.965 527.93H806V496H821.965C831.012 496 837.93 502.918 837.93 511.965C837.93 521.012 831.012 527.93 821.965 527.93Z" fill="black"/>
<path d="M899.93 496H868V527.93H899.93V496Z" fill="black"/>
<path d="M31.93 527H0V558.93H31.93V527Z" fill="black"/>
<path d="M186.93 527H155V558.93H186.93V527Z" fill="black"/>
<path d="M248.93 558.93H217V542.965C217 533.918 223.918 527 232.965 527H248.93V558.93Z" fill="black"/>
<path d="M279.93 527H248V558.93H279.93V527Z" fill="black"/>
<path d="M310.93 527H279V558.93H310.93V527Z" fill="black"/>
<path d="M341.93 527H310V558.93H341.93V527Z" fill="black"/>
<path d="M372.93 558.93H341V527H356.965C366.012 527 372.93 533.918 372.93 542.965V558.93Z" fill="black"/>
<path d="M449.965 558.93C458.782 558.93 465.93 551.782 465.93 542.965C465.93 534.148 458.782 527 449.965 527C441.148 527 434 534.148 434 542.965C434 551.782 441.148 558.93 449.965 558.93Z" fill="black"/>
<path d="M542.965 558.93C533.918 558.93 527 552.012 527 542.965V527H558.93V542.965C558.93 552.012 552.012 558.93 542.965 558.93Z" fill="black"/>
<path d="M620.93 558.93H604.965C595.918 558.93 589 552.012 589 542.965C589 533.918 595.918 527 604.965 527H620.93V558.93Z" fill="black"/>
<path d="M651.93 527H620V558.93H651.93V527Z" fill="black"/>
<path d="M682.93 527H651V558.93H682.93V527Z" fill="black"/>
<path d="M713.93 527H682V558.93H713.93V527Z" fill="black"/>
<path d="M744.93 527H713V558.93H744.93V527Z" fill="black"/>
<path d="M775.93 527H744V558.93H775.93V527Z" fill="black"/>
<path d="M790.965 558.93H775V527H806.93V542.965C806.93 552.012 800.012 558.93 790.965 558.93Z" fill="black"/>
<path d="M868.93 558.93H852.965C843.918 558.93 837 552.012 837 542.965C837 533.918 843.918 527 852.965 527H868.93V558.93Z" fill="black"/>
<path d="M883.965 558.93H868V527H899.93V542.965C899.93 552.012 893.012 558.93 883.965 558.93Z" fill="black"/>
<path d="M31.93 558H0V589.93H31.93V558Z" fill="black"/>
<path d="M186.93 558H155V589.93H186.93V558Z" fill="black"/>
<path d="M217.93 558H186V589.93H217.93V558Z" fill="black"/>
<path d="M248.93 558H217V589.93H248.93V558Z" fill="black"/>
<path d="M310.93 589.93H294.965C285.918 589.93 279 583.012 279 573.965V558H310.93V589.93Z" fill="black"/>
<path d="M341.93 558H310V589.93H341.93V558Z" fill="black"/>
<path d="M356.965 589.93H341V558H372.93V573.965C372.93 583.012 366.012 589.93 356.965 589.93Z" fill="black"/>
<path d="M418.965 589.93C427.782 589.93 434.93 582.782 434.93 573.965C434.93 565.148 427.782 558 418.965 558C410.148 558 403 565.148 403 573.965C403 582.782 410.148 589.93 418.965 589.93Z" fill="black"/>
<path d="M496.93 589.93H465V573.965C465 564.918 471.918 558 480.965 558H496.93V589.93Z" fill="black"/>
<path d="M511.965 589.93H496V558H511.965C521.012 558 527.93 564.918 527.93 573.965C527.93 583.012 521.012 589.93 511.965 589.93Z" fill="black"/>
<path d="M713.93 558H682V589.93H713.93V558Z" fill="black"/>
<path d="M775.93 558H744V589.93H775.93V558Z" fill="black"/>
<path d="M31.93 589H0V620.93H31.93V589Z" fill="black"/>
<path d="M186.93 589H155V620.93H186.93V589Z" fill="black"/>
<path d="M248.93 589H217V620.93H248.93V589Z" fill="black"/>
<path d="M263.965 620.93H248V589H263.965C273.012 589 279.93 595.918 279.93 604.965C279.93 614.012 273.012 620.93 263.965 620.93Z" fill="black"/>
<path d="M341.93 589H310V620.93H341.93V589Z" fill="black"/>
<path d="M387.965 620.93C396.782 620.93 403.93 613.782 403.93 604.965C403.93 596.148 396.782 589 387.965 589C379.148 589 372 596.148 372 604.965C372 613.782 379.148 620.93 387.965 620.93Z" fill="black"/>
<path d="M496.93 589H465V620.93H496.93V589Z" fill="black"/>
<path d="M558.93 620.93H527V604.965C527 595.918 533.918 589 542.965 589C552.012 589 558.93 595.918 558.93 604.965V620.93Z" fill="black"/>
<path d="M651.93 620.93H620V604.965C620 595.918 626.918 589 635.965 589C645.012 589 651.93 595.918 651.93 604.965V620.93Z" fill="black"/>
<path d="M713.93 589H682V620.93H713.93V589Z" fill="black"/>
<path d="M744.93 589H713V620.93H744.93V589Z" fill="black"/>
<path d="M775.93 589H744V620.93H775.93V589Z" fill="black"/>
<path d="M868.93 620.93H837V604.965C837 595.918 843.918 589 852.965 589C862.012 589 868.93 595.918 868.93 604.965V620.93Z" fill="black"/>
<path d="M15.965 651.93C6.91817 651.93 0 645.012 0 635.965V620H31.93V635.965C31.93 645.012 25.0118 651.93 15.965 651.93Z" fill="black"/>
<path d="M124.93 651.93H108.965C99.9182 651.93 93 645.012 93 635.965C93 626.918 99.9182 620 108.965 620H124.93V651.93Z" fill="black"/>
<path d="M155.93 620H124V651.93H155.93V620Z" fill="black"/>
<path d="M186.93 620H155V651.93H186.93V620Z" fill="black"/>
<path d="M217.93 620H186V651.93H217.93V620Z" fill="black"/>
<path d="M232.965 651.93H217V620H248.93V635.965C248.93 645.012 242.012 651.93 232.965 651.93Z" fill="black"/>
<path d="M341.93 620H310V651.93H341.93V620Z" fill="black"/>
<path d="M372.93 651.93H341V620H356.965C366.012 620 372.93 626.918 372.93 635.965V651.93Z" fill="black"/>
<path d="M434.93 651.93H403V635.965C403 626.918 409.918 620 418.965 620H434.93V651.93Z" fill="black"/>
<path d="M465.93 620H434V651.93H465.93V620Z" fill="black"/>
<path d="M496.93 620H465V651.93H496.93V620Z" fill="black"/>
<path d="M558.93 620H527V651.93H558.93V620Z" fill="black"/>
<path d="M589.93 620H558V651.93H589.93V620Z" fill="black"/>
<path d="M620.93 620H589V651.93H620.93V620Z" fill="black"/>
<path d="M651.93 620H620V651.93H651.93V620Z" fill="black"/>
<path d="M682.93 620H651V651.93H682.93V620Z" fill="black"/>
<path d="M713.93 620H682V651.93H713.93V620Z" fill="black"/>
<path d="M744.93 620H713V651.93H744.93V620Z" fill="black"/>
<path d="M775.93 620H744V651.93H775.93V620Z" fill="black"/>
<path d="M837.93 651.93H821.965C812.918 651.93 806 645.012 806 635.965C806 626.918 812.918 620 821.965 620H837.93V651.93Z" fill="black"/>
<path d="M868.93 620H837V651.93H868.93V620Z" fill="black"/>
<path d="M899.93 651.93H868V620H883.965C893.012 620 899.93 626.918 899.93 635.965V651.93Z" fill="black"/>
<path d="M279.93 682.93H263.965C254.918 682.93 248 676.012 248 666.965C248 657.918 254.918 651 263.965 651H279.93V682.93Z" fill="black"/>
<path d="M310.93 651H279V682.93H310.93V651Z" fill="black"/>
<path d="M341.93 651H310V682.93H341.93V651Z" fill="black"/>
<path d="M372.93 651H341V682.93H372.93V651Z" fill="black"/>
<path d="M418.965 682.93C409.918 682.93 403 676.012 403 666.965V651H434.93V666.965C434.93 676.012 428.012 682.93 418.965 682.93Z" fill="black"/>
<path d="M496.93 651H465V682.93H496.93V651Z" fill="black"/>
<path d="M558.93 682.93H542.965C533.918 682.93 527 676.012 527 666.965V651H558.93V682.93Z" fill="black"/>
<path d="M589.93 651H558V682.93H589.93V651Z" fill="black"/>
<path d="M620.93 651H589V682.93H620.93V651Z" fill="black"/>
<path d="M651.93 651H620V682.93H651.93V651Z" fill="black"/>
<path d="M775.93 651H744V682.93H775.93V651Z" fill="black"/>
<path d="M790.965 682.93H775V651H790.965C800.012 651 806.93 657.918 806.93 666.965C806.93 676.012 800.012 682.93 790.965 682.93Z" fill="black"/>
<path d="M868.93 651H837V682.93H868.93V651Z" fill="black"/>
<path d="M883.965 682.93H868V651H899.93V666.965C899.93 676.012 893.012 682.93 883.965 682.93Z" fill="black"/>
<path d="M310.93 682H279V713.93H310.93V682Z" fill="black"/>
<path d="M356.965 713.93C347.918 713.93 341 707.012 341 697.965V682H372.93V697.965C372.93 707.012 366.012 713.93 356.965 713.93Z" fill="black"/>
<path d="M465.93 713.93H434V697.965C434 688.918 440.918 682 449.965 682H465.93V713.93Z" fill="black"/>
<path d="M496.93 682H465V713.93H496.93V682Z" fill="black"/>
<path d="M527.93 713.93H496V682H511.965C521.012 682 527.93 688.918 527.93 697.965V713.93Z" fill="black"/>
<path d="M589.93 713.93H573.965C564.918 713.93 558 707.012 558 697.965V682H589.93V713.93Z" fill="black"/>
<path d="M620.93 682H589V713.93H620.93V682Z" fill="black"/>
<path d="M651.93 682H620V713.93H651.93V682Z" fill="black"/>
<path d="M697.965 713.93C706.782 713.93 713.93 706.782 713.93 697.965C713.93 689.148 706.782 682 697.965 682C689.148 682 682 689.148 682 697.965C682 706.782 689.148 713.93 697.965 713.93Z" fill="black"/>
<path d="M775.93 682H744V713.93H775.93V682Z" fill="black"/>
<path d="M868.93 682H837V713.93H868.93V682Z" fill="black"/>
<path d="M294.965 744.93C285.918 744.93 279 738.012 279 728.965V713H310.93V728.965C310.93 738.012 304.012 744.93 294.965 744.93Z" fill="black"/>
<path d="M465.93 744.93H449.965C440.918 744.93 434 738.012 434 728.965V713H465.93V744.93Z" fill="black"/>
<path d="M496.93 713H465V744.93H496.93V713Z" fill="black"/>
<path d="M527.93 713H496V744.93H527.93V713Z" fill="black"/>
<path d="M542.965 744.93H527V713H542.965C552.012 713 558.93 719.918 558.93 728.965C558.93 738.012 552.012 744.93 542.965 744.93Z" fill="black"/>
<path d="M620.93 744.93H604.965C595.918 744.93 589 738.012 589 728.965V713H620.93V744.93Z" fill="black"/>
<path d="M651.93 713H620V744.93H651.93V713Z" fill="black"/>
<path d="M775.93 713H744V744.93H775.93V713Z" fill="black"/>
<path d="M806.93 744.93H775V713H790.965C800.012 713 806.93 719.918 806.93 728.965V744.93Z" fill="black"/>
<path d="M852.965 744.93C843.918 744.93 837 738.012 837 728.965V713H868.93V728.965C868.93 738.012 862.012 744.93 852.965 744.93Z" fill="black"/>
<path d="M279.93 775.93H248V759.965C248 750.918 254.918 744 263.965 744C273.012 744 279.93 750.918 279.93 759.965V775.93Z" fill="black"/>
<path d="M372.93 775.93H341V759.965C341 750.918 347.918 744 356.965 744H372.93V775.93Z" fill="black"/>
<path d="M403.93 775.93H372V744H387.965C397.012 744 403.93 750.918 403.93 759.965V775.93Z" fill="black"/>
<path d="M573.965 775.93C582.782 775.93 589.93 768.782 589.93 759.965C589.93 751.148 582.782 744 573.965 744C565.148 744 558 751.148 558 759.965C558 768.782 565.148 775.93 573.965 775.93Z" fill="black"/>
<path d="M651.93 744H620V775.93H651.93V744Z" fill="black"/>
<path d="M682.93 744H651V775.93H682.93V744Z" fill="black"/>
<path d="M713.93 744H682V775.93H713.93V744Z" fill="black"/>
<path d="M744.93 744H713V775.93H744.93V744Z" fill="black"/>
<path d="M775.93 744H744V775.93H775.93V744Z" fill="black"/>
<path d="M806.93 744H775V775.93H806.93V744Z" fill="black"/>
<path d="M837.93 775.93H806V744H821.965C831.012 744 837.93 750.918 837.93 759.965V775.93Z" fill="black"/>
<path d="M883.965 775.93C892.782 775.93 899.93 768.782 899.93 759.965C899.93 751.148 892.782 744 883.965 744C875.148 744 868 751.148 868 759.965C868 768.782 875.148 775.93 883.965 775.93Z" fill="black"/>
<path d="M279.93 775H248V806.93H279.93V775Z" fill="black"/>
<path d="M372.93 775H341V806.93H372.93V775Z" fill="black"/>
<path d="M387.965 806.93H372V775H403.93V790.965C403.93 800.012 397.012 806.93 387.965 806.93Z" fill="black"/>
<path d="M465.93 806.93H434V790.965C434 781.918 440.918 775 449.965 775H465.93V806.93Z" fill="black"/>
<path d="M496.93 775H465V806.93H496.93V775Z" fill="black"/>
<path d="M511.965 806.93H496V775H511.965C521.012 775 527.93 781.918 527.93 790.965C527.93 800.012 521.012 806.93 511.965 806.93Z" fill="black"/>
<path d="M620.93 806.93H589V790.965C589 781.918 595.918 775 604.965 775H620.93V806.93Z" fill="black"/>
<path d="M651.93 775H620V806.93H651.93V775Z" fill="black"/>
<path d="M682.93 775H651V806.93H682.93V775Z" fill="black"/>
<path d="M744.93 775H713V806.93H744.93V775Z" fill="black"/>
<path d="M806.93 775H775V806.93H806.93V775Z" fill="black"/>
<path d="M837.93 775H806V806.93H837.93V775Z" fill="black"/>
<path d="M263.965 837.93C254.918 837.93 248 831.012 248 821.965V806H279.93V821.965C279.93 831.012 273.012 837.93 263.965 837.93Z" fill="black"/>
<path d="M341.93 837.93H325.965C316.918 837.93 310 831.012 310 821.965C310 812.918 316.918 806 325.965 806H341.93V837.93Z" fill="black"/>
<path d="M356.965 837.93H341V806H372.93V821.965C372.93 831.012 366.012 837.93 356.965 837.93Z" fill="black"/>
<path d="M434.93 837.93H403V821.965C403 812.918 409.918 806 418.965 806H434.93V837.93Z" fill="black"/>
<path d="M449.965 837.93H434V806H465.93V821.965C465.93 831.012 459.012 837.93 449.965 837.93Z" fill="black"/>
<path d="M542.965 837.93C551.782 837.93 558.93 830.782 558.93 821.965C558.93 813.148 551.782 806 542.965 806C534.148 806 527 813.148 527 821.965C527 830.782 534.148 837.93 542.965 837.93Z" fill="black"/>
<path d="M620.93 837.93H604.965C595.918 837.93 589 831.012 589 821.965V806H620.93V837.93Z" fill="black"/>
<path d="M651.93 806H620V837.93H651.93V806Z" fill="black"/>
<path d="M682.93 806H651V837.93H682.93V806Z" fill="black"/>
<path d="M713.93 806H682V837.93H713.93V806Z" fill="black"/>
<path d="M744.93 806H713V837.93H744.93V806Z" fill="black"/>
<path d="M775.93 806H744V837.93H775.93V806Z" fill="black"/>
<path d="M806.93 806H775V837.93H806.93V806Z" fill="black"/>
<path d="M837.93 806H806V837.93H837.93V806Z" fill="black"/>
<path d="M868.93 837.93H837V806H852.965C862.012 806 868.93 812.918 868.93 821.965V837.93Z" fill="black"/>
<path d="M310.93 868.93H279V852.965C279 843.918 285.918 837 294.965 837C304.012 837 310.93 843.918 310.93 852.965V868.93Z" fill="black"/>
<path d="M403.93 868.93H372V852.965C372 843.918 378.918 837 387.965 837H403.93V868.93Z" fill="black"/>
<path d="M418.965 868.93H403V837H434.93V852.965C434.93 862.012 428.012 868.93 418.965 868.93Z" fill="black"/>
<path d="M496.93 868.93H480.965C471.918 868.93 465 862.012 465 852.965C465 843.918 471.918 837 480.965 837H496.93V868.93Z" fill="black"/>
<path d="M511.965 868.93H496V837H511.965C521.012 837 527.93 843.918 527.93 852.965C527.93 862.012 521.012 868.93 511.965 868.93Z" fill="black"/>
<path d="M635.965 868.93C626.918 868.93 620 862.012 620 852.965V837H651.93V852.965C651.93 862.012 645.012 868.93 635.965 868.93Z" fill="black"/>
<path d="M713.93 837H682V868.93H713.93V837Z" fill="black"/>
<path d="M775.93 837H744V868.93H775.93V837Z" fill="black"/>
<path d="M790.965 868.93H775V837H806.93V852.965C806.93 862.012 800.012 868.93 790.965 868.93Z" fill="black"/>
<path d="M852.965 868.93C843.918 868.93 837 862.012 837 852.965V837H868.93V852.965C868.93 862.012 862.012 868.93 852.965 868.93Z" fill="black"/>
<path d="M294.965 899.93C285.918 899.93 279 893.012 279 883.965V868H310.93V883.965C310.93 893.012 304.012 899.93 294.965 899.93Z" fill="black"/>
<path d="M372.93 899.93H356.965C347.918 899.93 341 893.012 341 883.965C341 874.918 347.918 868 356.965 868H372.93V899.93Z" fill="black"/>
<path d="M387.965 899.93H372V868H403.93V883.965C403.93 893.012 397.012 899.93 387.965 899.93Z" fill="black"/>
<path d="M542.965 899.93C551.782 899.93 558.93 892.782 558.93 883.965C558.93 875.148 551.782 868 542.965 868C534.148 868 527 875.148 527 883.965C527 892.782 534.148 899.93 542.965 899.93Z" fill="black"/>
<path d="M604.965 899.93C613.782 899.93 620.93 892.782 620.93 883.965C620.93 875.148 613.782 868 604.965 868C596.148 868 589 875.148 589 883.965C589 892.782 596.148 899.93 604.965 899.93Z" fill="black"/>
<path d="M682.93 899.93H666.965C657.918 899.93 651 893.012 651 883.965C651 874.918 657.918 868 666.965 868H682.93V899.93Z" fill="black"/>
<path d="M697.965 899.93H682V868H713.93V883.965C713.93 893.012 707.012 899.93 697.965 899.93Z" fill="black"/>
<path d="M759.965 899.93C750.918 899.93 744 893.012 744 883.965V868H775.93V883.965C775.93 893.012 769.012 899.93 759.965 899.93Z" fill="black"/>
<path d="M821.965 899.93C830.782 899.93 837.93 892.782 837.93 883.965C837.93 875.148 830.782 868 821.965 868C813.148 868 806 875.148 806 883.965C806 892.782 813.148 899.93 821.965 899.93Z" fill="black"/>
<path d="M69.75 217H148.8C186 217 217 186 217 148.8V69.75C217 31 186 0 147.25 0H68.2C31 0 0 31 0 68.2V147.25C0 186 31 217 69.75 217ZM186 74.4V142.6C186 165.85 165.85 186 142.6 186H74.4C49.6 186 31 167.4 31 142.6V74.4C31 51.15 51.15 31 74.4 31H142.6C167.4 31 186 49.6 186 74.4Z" fill="black"/>
<path d="M751.75 217H830.8C868 217 899 186 899 148.8V69.75C899 31 868 0 829.25 0H750.2C713 0 682 31 682 68.2V147.25C682 186 713 217 751.75 217ZM868 74.4V142.6C868 165.85 847.85 186 824.6 186H756.4C731.6 186 713 167.4 713 142.6V74.4C713 51.15 733.15 31 756.4 31H824.6C849.4 31 868 49.6 868 74.4Z" fill="black"/>
<path d="M69.75 899H148.8C186 899 217 868 217 830.8V751.75C217 713 186 682 147.25 682H68.2C31 682 0 713 0 750.2V829.25C0 868 31 899 69.75 899ZM186 756.4V824.6C186 847.85 165.85 868 142.6 868H74.4C49.6 868 31 849.4 31 824.6V756.4C31 733.15 51.15 713 74.4 713H142.6C167.4 713 186 731.6 186 756.4Z" fill="black"/>
<path d="M155 88.35V130.2C155 142.6 142.6 155 128.65 155H88.35C72.85 155 62 144.15 62 128.65V88.35C62 74.4 74.4 62 88.35 62H130.2C144.15 62 155 72.85 155 88.35Z" fill="black"/>
<path d="M837 88.35V130.2C837 142.6 824.6 155 810.65 155H770.35C754.85 155 744 144.15 744 128.65V88.35C744 74.4 756.4 62 770.35 62H812.2C826.15 62 837 72.85 837 88.35Z" fill="black"/>
<path d="M155 770.35V812.2C155 824.6 142.6 837 128.65 837H88.35C72.85 837 62 826.15 62 810.65V770.35C62 756.4 74.4 744 88.35 744H130.2C144.15 744 155 754.85 155 770.35Z" fill="black"/>
</svg>
