<svg width="207" height="105" viewBox="0 0 207 105" fill="none" xmlns="http://www.w3.org/2000/svg">
<path d="M2.1613e-05 87.9402C2.1613e-05 87.9402 2.14715e-05 76.0736 2.12969e-05 61.4353C2.11223e-05 46.7971 2.09808e-05 34.9305 2.09808e-05 34.9305C14.6383 34.9305 26.5049 46.7971 26.5049 61.4353C26.5049 76.0736 14.6383 87.9402 2.1613e-05 87.9402Z" fill="#ACD9B7"/>
<path d="M53.1401 34.9315C53.1401 34.9315 53.1401 46.7981 53.1401 61.4363C53.1401 76.0746 53.1401 87.9412 53.1401 87.9412C38.5019 87.9412 26.6353 76.0746 26.6353 61.4363C26.6353 46.7981 38.5019 34.9315 53.1401 34.9315Z" fill="#F8C471"/>
<path d="M13.3167 61.436H26.6353V94.5008C19.3162 94.5008 13.3167 88.5675 13.3167 81.2484V61.436Z" fill="#3D4D41"/>
<path d="M26.5671 23.9309C26.5671 16.6118 32.5667 10.6785 39.8858 10.6785V61.3028H26.5671V23.9309Z" fill="#FCC5F3"/>
<path d="M8.4043 60.1274H44.8549V62.7079H8.4043V60.1274Z" fill="black"/>
<path d="M23.4655 67.1197C23.4655 67.1197 20.9125 64.5667 17.7632 61.4174C14.6139 58.2681 12.0609 55.715 12.0609 55.715C15.2102 52.5657 20.3162 52.5657 23.4655 55.715C26.6148 58.8643 26.6148 63.9704 23.4655 67.1197Z" fill="#333333"/>
<path d="M23.4661 67.1199C20.3168 70.2692 15.2108 70.2692 12.0615 67.1199C8.91222 63.9706 8.91222 58.8646 12.0615 55.7153C12.0615 55.7153 14.6145 58.2683 17.7638 61.4176C20.9131 64.5669 23.4661 67.1199 23.4661 67.1199Z" fill="black"/>
<path d="M41.2084 67.1197C41.2084 67.1197 38.6554 64.5667 35.5061 61.4174C32.3568 58.2681 29.8038 55.715 29.8038 55.715C32.9531 52.5657 38.0591 52.5657 41.2084 55.715C44.3577 58.8643 44.3577 63.9704 41.2084 67.1197Z" fill="#333333"/>
<path d="M41.2078 67.1199C38.0585 70.2692 32.9525 70.2692 29.8032 67.1199C26.6539 63.9706 26.6539 58.8646 29.8032 55.7153C29.8032 55.7153 32.3562 58.2683 35.5055 61.4176C38.6548 64.5669 41.2078 67.1199 41.2078 67.1199Z" fill="black"/>
<rect x="25.8323" y="62.3624" width="2.4517" height="0.331311" fill="black"/>
<path d="M27.0415 80.3575C26.5174 82.2227 24.7506 83.4462 22.8823 83.1981C21.0139 82.9501 19.6276 81.308 19.6083 79.3707L27.0415 80.3575Z" fill="white" stroke="white" stroke-width="1.17976"/>
<path d="M53.2654 86.0151C53.2654 94.829 53.2654 99.236 56.0035 101.974C58.7416 104.712 63.1486 104.712 71.9624 104.712L106.786 104.712C114.469 104.712 118.311 104.712 120.896 102.59C121.37 102.202 121.804 101.768 122.192 101.294C124.314 98.7086 124.314 94.867 124.314 87.1837C124.314 79.5004 124.314 75.6588 122.192 73.0731C121.804 72.5998 121.37 72.1657 120.896 71.7773C118.311 69.6552 114.469 69.6552 106.786 69.6552L53.2654 69.6552L53.2654 86.0151Z" fill="#FCC5F3"/>
<path d="M63.2877 83.7462C64.718 83.7462 65.4332 83.0311 65.4332 82.0775C65.4332 81.1637 64.9167 80.6869 63.8042 80.4883L62.9301 80.3294C62.3341 80.2181 62.1752 80.0115 62.1752 79.6937C62.1752 79.2963 62.493 78.9785 63.2082 78.9785C63.9234 78.9785 64.3207 79.3758 64.3207 79.8526H65.3537C65.3537 78.8196 64.6385 78.0249 63.2082 78.0249C61.8971 78.0249 61.1422 78.7798 61.1422 79.6937C61.1422 80.4883 61.5792 81.0445 62.5328 81.2034L63.4863 81.3624C64.2015 81.4816 64.4001 81.7597 64.4001 82.0775C64.4001 82.4748 64.0823 82.7927 63.2877 82.7927C62.5328 82.7927 62.056 82.3954 62.056 81.9186H61.023C61.023 82.9516 61.8573 83.7462 63.2877 83.7462ZM68.0138 83.7462C69.2852 83.7462 69.8017 82.7927 69.8812 82.4748H68.8482C68.7687 82.6338 68.4906 82.9119 68.0138 82.9119C67.4576 82.9119 67.0205 82.5146 66.9411 81.9583H69.9607C69.9607 81.9583 70.0004 81.7994 70.0004 81.561C70.0004 80.4088 69.1263 79.5347 68.0138 79.5347C66.8219 79.5347 65.9478 80.4088 65.9478 81.6405C65.9478 82.8722 66.8219 83.7462 68.0138 83.7462ZM66.9411 81.2829C67.0603 80.7664 67.4179 80.3691 68.0138 80.3691C68.5701 80.3691 68.9276 80.7664 69.0071 81.2829H66.9411ZM70.7143 83.6668H71.7076V78.1044H70.7143V83.6668ZM72.6583 83.6668H73.6516V78.1044H72.6583V83.6668ZM74.5626 83.6668H75.5559V79.6142H74.5626V83.6668ZM74.5229 78.9785H75.5957V78.0249H74.5229V78.9785ZM76.4291 83.6668H77.4224V81.3226C77.4224 80.8061 77.7799 80.4485 78.2964 80.4485C78.813 80.4485 79.1705 80.8061 79.1705 81.3226V83.6668H80.1638V81.2432C80.1638 80.2102 79.4884 79.5347 78.5746 79.5347C77.8197 79.5347 77.4621 80.0115 77.4621 80.0115H77.4224L77.3429 79.6142H76.4291V83.6668ZM82.8236 85.3355C84.0156 85.3355 84.7705 84.6203 84.7705 83.5555V79.6142H83.8964L83.8169 80.0115H83.7772C83.7772 80.0115 83.4196 79.5347 82.625 79.5347C81.592 79.5347 80.7973 80.3294 80.7973 81.4816C80.7973 82.6338 81.592 83.4284 82.625 83.4284C83.3799 83.4284 83.7375 82.9913 83.7375 82.9913H83.7772V83.5476C83.7772 84.1038 83.3799 84.4614 82.8236 84.4614C82.1879 84.4614 81.9893 84.0641 81.9495 83.8654H80.9165C80.9165 84.1436 81.2344 85.3355 82.8236 85.3355ZM82.7839 82.5543C82.2277 82.5543 81.7906 82.1173 81.7906 81.4816C81.7906 80.8459 82.2277 80.4088 82.7839 80.4088C83.3401 80.4088 83.7772 80.8459 83.7772 81.4816C83.7772 82.1173 83.3401 82.5543 82.7839 82.5543ZM87.5554 83.6668H90.2174C91.1709 83.6668 91.8066 83.0311 91.8066 82.1173C91.8066 81.2432 91.1709 80.8856 91.1709 80.8856V80.8459C91.1709 80.8459 91.7271 80.4883 91.7271 79.6539C91.7271 78.7401 91.0914 78.1044 90.1379 78.1044H87.5554V83.6668ZM88.5884 82.753V81.3226H90.0982C90.4557 81.3226 90.7736 81.6405 90.7736 82.0378C90.7736 82.4351 90.4557 82.753 90.0982 82.753H88.5884ZM88.5884 80.4088V79.0182H90.0187C90.416 79.0182 90.6941 79.2963 90.6941 79.7334C90.6941 80.1307 90.416 80.4088 90.0187 80.4088H88.5884ZM92.5627 83.6668H93.556V79.6142H92.5627V83.6668ZM92.523 78.9785H93.5958V78.0249H92.523V78.9785ZM95.78 83.6668H96.6541V82.7927H96.0184C95.8198 82.7927 95.7403 82.7132 95.7403 82.5146V80.5677H96.6541V79.6142H95.7403V78.462H94.747V79.6142H94.1113V80.5677H94.747V82.7132C94.747 83.3092 95.1046 83.6668 95.78 83.6668ZM99.0787 83.7462C100.35 83.7462 100.867 82.7927 100.986 82.157H99.9925C99.913 82.4351 99.6746 82.8324 99.0787 82.8324C98.4827 82.8324 98.0059 82.3556 98.0059 81.6405C98.0059 80.9253 98.4827 80.4485 99.0787 80.4485C99.6746 80.4485 99.913 80.8459 99.9925 81.0842H100.986C100.867 80.4883 100.35 79.5347 99.0787 79.5347C97.8867 79.5347 97.0126 80.4088 97.0126 81.6405C97.0126 82.8722 97.8867 83.7462 99.0787 83.7462ZM103.49 83.7462C104.682 83.7462 105.556 82.8722 105.556 81.6405C105.556 80.4088 104.682 79.5347 103.49 79.5347C102.298 79.5347 101.424 80.4088 101.424 81.6405C101.424 82.8722 102.298 83.7462 103.49 83.7462ZM103.49 82.8324C102.894 82.8324 102.418 82.3556 102.418 81.6405C102.418 80.9253 102.894 80.4485 103.49 80.4485C104.086 80.4485 104.563 80.9253 104.563 81.6405C104.563 82.3556 104.086 82.8324 103.49 82.8324ZM106.229 83.6668H107.222V79.6142H106.229V83.6668ZM106.189 78.9785H107.262V78.0249H106.189V78.9785ZM108.095 83.6668H109.088V81.3226C109.088 80.8061 109.446 80.4485 109.963 80.4485C110.479 80.4485 110.837 80.8061 110.837 81.3226V83.6668H111.83V81.2432C111.83 80.2102 111.154 79.5347 110.241 79.5347C109.486 79.5347 109.128 80.0115 109.128 80.0115H109.088L109.009 79.6142H108.095V83.6668Z" fill="black"/>
<path d="M71.1204 95.8311H71.9056V93.9614H73.4762C74.3363 93.9614 75.0093 93.2883 75.0093 92.2786C75.0093 91.269 74.3363 90.5959 73.4762 90.5959H71.1204V95.8311ZM71.9056 93.2135V91.3438H73.4388C73.8501 91.3438 74.2241 91.7177 74.2241 92.2786C74.2241 92.8395 73.8501 93.2135 73.4388 93.2135H71.9056Z" fill="black"/>
<path d="M75.6798 95.8311H76.4277V93.5425C76.4277 93.0265 76.6895 92.7647 77.213 92.7647H77.8113V92.0917H77.1382C76.6895 92.0917 76.5399 92.2786 76.4277 92.4282H76.3903L76.3155 92.0917H75.6798V95.8311Z" fill="black"/>
<path d="M79.2758 95.9058C80.0611 95.9058 80.3976 95.4197 80.3976 95.4197H80.435L80.5098 95.8311H81.1455V93.4378C81.1455 92.5778 80.5846 92.0169 79.6123 92.0169C78.6775 92.0169 78.1166 92.5404 78.0792 93.1761H78.827C78.8644 92.9517 79.0888 92.6526 79.6123 92.6526C80.0984 92.6526 80.3976 92.9517 80.3976 93.4378V93.5126H79.4627C78.4157 93.5126 77.9296 93.9987 77.9296 94.7466C77.9296 95.4197 78.4531 95.9058 79.2758 95.9058ZM79.3506 95.2701C78.9018 95.2701 78.6775 95.0458 78.6775 94.7092C78.6775 94.3727 78.9392 94.1109 79.5001 94.1109H80.3976V94.2605C80.3976 94.8962 80.0237 95.2701 79.3506 95.2701Z" fill="black"/>
<path d="M83.5773 97.4016C84.6991 97.4016 85.3348 96.7285 85.3348 95.7563V92.0917H84.6617L84.5869 92.503H84.5495C84.4373 92.3534 84.1008 92.0169 83.3903 92.0169C82.4554 92.0169 81.745 92.7273 81.745 93.8118C81.745 94.8962 82.4554 95.6067 83.3903 95.6067C84.1008 95.6067 84.3625 95.3449 84.5495 95.158H84.5869V95.7563C84.5869 96.3172 84.1756 96.7285 83.5773 96.7285C82.979 96.7285 82.6424 96.392 82.605 96.0554H81.8571C81.8945 96.5789 82.3433 97.4016 83.5773 97.4016ZM83.5399 94.9336C82.9416 94.9336 82.4928 94.4849 82.4928 93.8118C82.4928 93.1387 82.9416 92.69 83.5399 92.69C84.1382 92.69 84.5869 93.1387 84.5869 93.8118C84.5869 94.4849 84.1382 94.9336 83.5399 94.9336Z" fill="black"/>
<path d="M87.6529 95.9058C88.3634 95.9058 88.7374 95.4571 88.7374 95.4571H88.7748L88.8495 95.8311H89.5226V92.0917H88.7748V94.3353C88.7748 94.8214 88.3634 95.2328 87.8025 95.2328C87.279 95.2328 86.905 94.8214 86.905 94.3353V92.0917H86.1572V94.3353C86.1572 95.3075 86.7555 95.9058 87.6529 95.9058Z" fill="black"/>
<path d="M92.0286 95.9058C93.0009 95.9058 93.5244 95.2328 93.7114 94.7466H92.9261C92.8139 95.0084 92.4774 95.2701 92.0286 95.2701C91.4303 95.2701 90.9816 94.8588 90.9068 94.2231H93.7861C93.7861 94.2231 93.8235 94.0735 93.8235 93.8492C93.8235 92.8021 93.0383 92.0169 92.0286 92.0169C90.9442 92.0169 90.1589 92.8021 90.1589 93.9614C90.1589 95.1206 90.9442 95.9058 92.0286 95.9058ZM90.9068 93.6622C91.019 93.0639 91.3929 92.6526 92.0286 92.6526C92.6269 92.6526 93.0383 93.0639 93.1131 93.6622H90.9068Z" fill="black"/>
<g clip-path="url(#clip0_78_302)">
<path d="M64.4834 89.2871C63.8019 89.2879 63.1484 89.559 62.6665 90.041C62.1845 90.523 61.9134 91.1764 61.9126 91.858C61.9126 94.0577 64.2497 95.7193 64.3492 95.7889C64.3886 95.8164 64.4354 95.8311 64.4834 95.8311C64.5314 95.8311 64.5783 95.8164 64.6176 95.7889C64.7172 95.7193 67.0543 94.0577 67.0543 91.858C67.0535 91.1764 66.7824 90.523 66.3004 90.041C65.8185 89.559 65.165 89.2879 64.4834 89.2871ZM64.4836 90.9232C64.6685 90.9232 64.8493 90.978 65.003 91.0808C65.1567 91.1835 65.2765 91.3295 65.3473 91.5003C65.4181 91.6711 65.4366 91.8591 65.4005 92.0404C65.3644 92.2218 65.2754 92.3884 65.1447 92.5191C65.0139 92.6498 64.8473 92.7389 64.666 92.7749C64.4846 92.811 64.2967 92.7925 64.1259 92.7217C63.955 92.651 63.809 92.5312 63.7063 92.3774C63.6036 92.2237 63.5488 92.0429 63.5488 91.8581C63.5488 91.7353 63.5729 91.6137 63.6199 91.5003C63.6669 91.3869 63.7358 91.2838 63.8226 91.197C63.9094 91.1102 64.0124 91.0413 64.1259 90.9944C64.2393 90.9474 64.3608 90.9232 64.4836 90.9232Z" fill="black"/>
</g>
<path d="M206.776 60.3204L180.271 86.8253L180.271 60.3204L206.776 60.3204Z" fill="#3D4D41"/>
<path d="M180.271 20.1159H193.523C197.183 20.1159 200.149 23.0826 200.149 26.7421V55.5841H180.271V20.1159Z" fill="#F8C471"/>
<path d="M147.169 40.6665H173.813V66.8424L147.169 40.6665Z" fill="#ACD9B7"/>
<path d="M140.626 20.567L160.258 40.6664H140.626V20.567Z" fill="#3D4D41"/>
<path d="M180.356 40.6665L180.356 73.3863L167.268 73.3863L173.812 40.6665L180.356 40.6665Z" fill="#F6BAEC"/>
<path d="M162.189 44.3627H198.639V46.9433H162.189V44.3627Z" fill="black"/>
<path d="M177.247 51.3553C177.247 51.3553 174.694 48.8023 171.545 45.653C168.396 42.5037 165.843 39.9507 165.843 39.9507C168.992 36.8014 174.098 36.8014 177.247 39.9507C180.397 43.1 180.397 48.206 177.247 51.3553Z" fill="#333333"/>
<path d="M177.248 51.3556C174.099 54.5049 168.993 54.5049 165.844 51.3556C162.694 48.2063 162.694 43.1002 165.843 39.9509C165.843 39.9509 168.397 42.5039 171.546 45.6532C174.695 48.8025 177.248 51.3556 177.248 51.3556Z" fill="black"/>
<path d="M194.987 51.3553C194.987 51.3553 192.434 48.8023 189.285 45.653C186.136 42.5037 183.583 39.9507 183.583 39.9507C186.732 36.8014 191.838 36.8014 194.987 39.9507C198.137 43.1 198.137 48.206 194.987 51.3553Z" fill="#333333"/>
<path d="M194.987 51.3556C191.837 54.5049 186.731 54.5049 183.582 51.3556C180.433 48.2063 180.433 43.1002 183.582 39.9509C183.582 39.9509 186.135 42.5039 189.284 45.6532C192.434 48.8025 194.987 51.3556 194.987 51.3556Z" fill="black"/>
<rect x="179.613" y="46.6004" width="2.4517" height="0.331311" fill="black"/>
<path d="M140.627 40.6663C140.627 47.7173 140.627 51.2429 138.436 53.4334C136.246 55.6239 132.72 55.6239 125.669 55.6239L84.5356 55.6239C77.4845 55.6239 73.9589 55.6239 71.7684 53.4334C69.5779 51.2429 69.578 47.7173 69.578 40.6662L69.578 35.5246C69.578 28.4735 69.578 24.9479 71.7684 22.7574C73.9589 20.5669 77.4845 20.5669 84.5356 20.5669L140.627 20.5669L140.627 40.6663Z" fill="#ACD9B7"/>
<path d="M77.6529 34.5782H80.3148C81.2684 34.5782 81.9041 33.9425 81.9041 33.0287C81.9041 32.1546 81.2684 31.797 81.2684 31.797V31.7573C81.2684 31.7573 81.8246 31.3997 81.8246 30.5653C81.8246 29.6515 81.1889 29.0158 80.2354 29.0158H77.6529V34.5782ZM78.6859 33.6644V32.234H80.1957C80.5532 32.234 80.8711 32.5519 80.8711 32.9492C80.8711 33.3465 80.5532 33.6644 80.1957 33.6644H78.6859ZM78.6859 31.3202V29.9296H80.1162C80.5135 29.9296 80.7916 30.2077 80.7916 30.6448C80.7916 31.0421 80.5135 31.3202 80.1162 31.3202H78.6859ZM84.2495 34.6576C85.0044 34.6576 85.362 34.1809 85.362 34.1809H85.4017L85.4811 34.5782H86.395V30.5256H85.4017V32.8697C85.4017 33.3862 85.0441 33.7438 84.5276 33.7438C84.0111 33.7438 83.6535 33.3862 83.6535 32.8697V30.5256H82.6602V32.9492C82.6602 33.9822 83.3357 34.6576 84.2495 34.6576ZM87.2262 36.1674H88.0606C88.8155 36.1674 89.0538 35.929 89.2525 35.3728L90.9609 30.5256H89.9279L88.9744 33.267H88.8155L87.7824 30.5256H86.7494L88.3943 34.8563L88.3228 35.0549C88.2831 35.1741 88.2195 35.2536 88.0208 35.2536H87.2262V36.1674ZM91.3207 34.5782H92.314V30.5256H91.3207V34.5782ZM91.281 29.8899H92.3537V28.9363H91.281V29.8899ZM93.1871 34.5782H94.1804V32.234C94.1804 31.7175 94.538 31.3599 95.0545 31.3599C95.571 31.3599 95.9286 31.7175 95.9286 32.234V34.5782H96.9219V32.1546C96.9219 31.1216 96.2464 30.4461 95.3326 30.4461C94.5777 30.4461 94.2201 30.9229 94.2201 30.9229H94.1804L94.101 30.5256H93.1871V34.5782ZM99.5817 36.2469C100.774 36.2469 101.529 35.5317 101.529 34.4669V30.5256H100.654L100.575 30.9229H100.535C100.535 30.9229 100.178 30.4461 99.383 30.4461C98.35 30.4461 97.5554 31.2407 97.5554 32.393C97.5554 33.5452 98.35 34.3398 99.383 34.3398C100.138 34.3398 100.496 33.9027 100.496 33.9027H100.535V34.459C100.535 35.0152 100.138 35.3728 99.5817 35.3728C98.946 35.3728 98.7473 34.9755 98.7076 34.7768H97.6746C97.6746 35.0549 97.9924 36.2469 99.5817 36.2469ZM99.542 33.4657C98.9857 33.4657 98.5487 33.0287 98.5487 32.393C98.5487 31.7573 98.9857 31.3202 99.542 31.3202C100.098 31.3202 100.535 31.7573 100.535 32.393C100.535 33.0287 100.098 33.4657 99.542 33.4657ZM104.313 34.5782H106.975C107.929 34.5782 108.565 33.9425 108.565 33.0287C108.565 32.1546 107.929 31.797 107.929 31.797V31.7573C107.929 31.7573 108.485 31.3997 108.485 30.5653C108.485 29.6515 107.85 29.0158 106.896 29.0158H104.313V34.5782ZM105.346 33.6644V32.234H106.856C107.214 32.234 107.532 32.5519 107.532 32.9492C107.532 33.3465 107.214 33.6644 106.856 33.6644H105.346ZM105.346 31.3202V29.9296H106.777C107.174 29.9296 107.452 30.2077 107.452 30.6448C107.452 31.0421 107.174 31.3202 106.777 31.3202H105.346ZM109.321 34.5782H110.314V30.5256H109.321V34.5782ZM109.281 29.8899H110.354V28.9363H109.281V29.8899ZM112.538 34.5782H113.412V33.7041H112.776C112.578 33.7041 112.498 33.6246 112.498 33.426V31.4791H113.412V30.5256H112.498V29.3734H111.505V30.5256H110.869V31.4791H111.505V33.6246C111.505 34.2206 111.863 34.5782 112.538 34.5782ZM115.837 34.6576C117.108 34.6576 117.625 33.7041 117.744 33.0684H116.751C116.671 33.3465 116.433 33.7438 115.837 33.7438C115.241 33.7438 114.764 33.267 114.764 32.5519C114.764 31.8367 115.241 31.3599 115.837 31.3599C116.433 31.3599 116.671 31.7573 116.751 31.9956H117.744C117.625 31.3997 117.108 30.4461 115.837 30.4461C114.645 30.4461 113.771 31.3202 113.771 32.5519C113.771 33.7835 114.645 34.6576 115.837 34.6576ZM120.248 34.6576C121.44 34.6576 122.314 33.7835 122.314 32.5519C122.314 31.3202 121.44 30.4461 120.248 30.4461C119.057 30.4461 118.182 31.3202 118.182 32.5519C118.182 33.7835 119.057 34.6576 120.248 34.6576ZM120.248 33.7438C119.652 33.7438 119.176 33.267 119.176 32.5519C119.176 31.8367 119.652 31.3599 120.248 31.3599C120.844 31.3599 121.321 31.8367 121.321 32.5519C121.321 33.267 120.844 33.7438 120.248 33.7438ZM122.987 34.5782H123.98V30.5256H122.987V34.5782ZM122.947 29.8899H124.02V28.9363H122.947V29.8899ZM124.853 34.5782H125.847V32.234C125.847 31.7175 126.204 31.3599 126.721 31.3599C127.237 31.3599 127.595 31.7175 127.595 32.234V34.5782H128.588V32.1546C128.588 31.1216 127.913 30.4461 126.999 30.4461C126.244 30.4461 125.886 30.9229 125.886 30.9229H125.847L125.767 30.5256H124.853V34.5782Z" fill="black"/>
<path d="M88.3123 47.5652H89.0602V46.8024C90.167 46.7126 90.7429 46.0769 90.7429 45.2842C90.7429 44.4615 90.2568 44.0128 89.2097 43.8258L88.3871 43.6762C87.8262 43.5715 87.6018 43.3023 87.6018 42.9657C87.6018 42.5544 87.9757 42.1805 88.6862 42.1805C89.4341 42.1805 89.8828 42.6292 89.8828 43.1153H90.6681C90.6681 42.2777 90.1222 41.5896 89.0602 41.455V40.6847H88.3123V41.4625C87.3774 41.5896 86.8165 42.2029 86.8165 42.9657C86.8165 43.6762 87.2279 44.1997 88.0505 44.3493L89.0602 44.5363C89.6585 44.6485 89.9576 44.9102 89.9576 45.2842C89.9576 45.7329 89.6211 46.0694 88.761 46.0694C87.9757 46.0694 87.4896 45.6207 87.4896 45.1346H86.7043C86.7043 45.9573 87.2802 46.6378 88.3123 46.7874V47.5652Z" fill="black"/>
<path d="M92.2013 46.7425H92.9866V41.5074H92.2013V41.8439C92.2013 41.9935 92.1265 42.0683 91.9769 42.0683H91.1168V42.8162H92.2013V46.7425Z" fill="black"/>
<path d="M93.9185 46.7425H94.6664V44.9476L96.3117 46.7425H97.2092L95.4516 44.8354L97.1344 43.0031H96.2369L94.6664 44.7233V41.5074H93.9185V46.7425Z" fill="black"/>
<path d="M98.8936 44.9476H103.942V44.2745H98.8936V44.9476Z" fill="black"/>
<path d="M107.573 47.5652H108.32V46.8024C109.427 46.7126 110.003 46.0769 110.003 45.2842C110.003 44.4615 109.517 44.0128 108.47 43.8258L107.647 43.6762C107.086 43.5715 106.862 43.3023 106.862 42.9657C106.862 42.5544 107.236 42.1805 107.947 42.1805C108.694 42.1805 109.143 42.6292 109.143 43.1153H109.928C109.928 42.2777 109.382 41.5896 108.32 41.455V40.6847H107.573V41.4625C106.638 41.5896 106.077 42.2029 106.077 42.9657C106.077 43.6762 106.488 44.1997 107.311 44.3493L108.32 44.5363C108.919 44.6485 109.218 44.9102 109.218 45.2842C109.218 45.7329 108.881 46.0694 108.021 46.0694C107.236 46.0694 106.75 45.6207 106.75 45.1346H105.965C105.965 45.9573 106.541 46.6378 107.573 46.7874V47.5652Z" fill="black"/>
<path d="M112.733 46.7425H113.518V45.6207H114.154V44.9102H113.518V41.5074H112.284L110.302 44.985V45.6207H112.733V46.7425ZM111.237 44.9102V44.8728L112.583 42.4796H112.733V44.9102H111.237Z" fill="black"/>
<path d="M114.676 46.7425H115.424V44.9476L117.069 46.7425H117.967L116.209 44.8354L117.892 43.0031H116.994L115.424 44.7233V41.5074H114.676V46.7425Z" fill="black"/>
<path d="M175.853 67.043C176.393 69.0415 178.262 70.3524 180.234 70.0885C182.206 69.8246 183.671 68.0676 183.674 65.9966L175.853 67.043Z" fill="white" stroke="white" stroke-width="1.17976"/>
<ellipse cx="140.627" cy="10.2834" rx="10.2834" ry="10.2834" transform="rotate(-90 140.627 10.2834)" fill="#E9AF53"/>
<path d="M140.627 -3.8147e-06C146.306 -4.06295e-06 150.91 4.60402 150.91 10.2834C150.91 15.9627 146.306 20.5667 140.627 20.5667C140.627 20.5667 140.627 15.9627 140.627 10.2834C140.627 4.60402 140.627 -3.8147e-06 140.627 -3.8147e-06Z" fill="#F8C471"/>
<defs>
<clipPath id="clip0_78_302">
<rect width="7.47882" height="7.47882" fill="white" transform="translate(60.7441 88.8197)"/>
</clipPath>
</defs>
</svg>
